<svg id="visual" viewBox="0 0 900 600" width="900" height="600" xmlns="http://www.w3.org/2000/svg" xmlns:xlink="http://www.w3.org/1999/xlink" version="1.1"><rect x="0" y="0" width="900" height="600" fill="#ffffff"></rect><path d="M0 326L9.3 339.7C18.7 353.3 37.3 380.7 56.2 389.8C75 399 94 390 112.8 375.3C131.7 360.7 150.3 340.3 169 336.8C187.7 333.3 206.3 346.7 225 351.8C243.7 357 262.3 354 281.2 355C300 356 319 361 337.8 369.2C356.7 377.3 375.3 388.7 394 385.7C412.7 382.7 431.3 365.3 450 343.2C468.7 321 487.3 294 506.2 284.2C525 274.3 544 281.7 562.8 298.7C581.7 315.7 600.3 342.3 619 349C637.7 355.7 656.3 342.3 675 342.3C693.7 342.3 712.3 355.7 731.2 350.5C750 345.3 769 321.7 787.8 314.2C806.7 306.7 825.3 315.3 844 313C862.7 310.7 881.3 297.3 890.7 290.7L900 284L900 601L890.7 601C881.3 601 862.7 601 844 601C825.3 601 806.7 601 787.8 601C769 601 750 601 731.2 601C712.3 601 693.7 601 675 601C656.3 601 637.7 601 619 601C600.3 601 581.7 601 562.8 601C544 601 525 601 506.2 601C487.3 601 468.7 601 450 601C431.3 601 412.7 601 394 601C375.3 601 356.7 601 337.8 601C319 601 300 601 281.2 601C262.3 601 243.7 601 225 601C206.3 601 187.7 601 169 601C150.3 601 131.7 601 112.8 601C94 601 75 601 56.2 601C37.3 601 18.7 601 9.3 601L0 601Z" fill="#fec8d8"></path><path d="M0 357L9.3 350C18.7 343 37.3 329 56.2 335.7C75 342.3 94 369.7 112.8 369.7C131.7 369.7 150.3 342.3 169 345.5C187.7 348.7 206.3 382.3 225 394.2C243.7 406 262.3 396 281.2 391C300 386 319 386 337.8 371.2C356.7 356.3 375.3 326.7 394 332.2C412.7 337.7 431.3 378.3 450 382.7C468.7 387 487.3 355 506.2 345.2C525 335.3 544 347.7 562.8 355.2C581.7 362.7 600.3 365.3 619 366.2C637.7 367 656.3 366 675 363.7C693.7 361.3 712.3 357.7 731.2 352.5C750 347.3 769 340.7 787.8 347.3C806.7 354 825.3 374 844 382.7C862.7 391.3 881.3 388.7 890.7 387.3L900 386L900 601L890.7 601C881.3 601 862.7 601 844 601C825.3 601 806.7 601 787.8 601C769 601 750 601 731.2 601C712.3 601 693.7 601 675 601C656.3 601 637.7 601 619 601C600.3 601 581.7 601 562.8 601C544 601 525 601 506.2 601C487.3 601 468.7 601 450 601C431.3 601 412.7 601 394 601C375.3 601 356.7 601 337.8 601C319 601 300 601 281.2 601C262.3 601 243.7 601 225 601C206.3 601 187.7 601 169 601C150.3 601 131.7 601 112.8 601C94 601 75 601 56.2 601C37.3 601 18.7 601 9.3 601L0 601Z" fill="#ddabc8"></path><path d="M0 357L9.3 371.3C18.7 385.7 37.3 414.3 56.2 418C75 421.7 94 400.3 112.8 386.5C131.7 372.7 150.3 366.3 169 379.3C187.7 392.3 206.3 424.7 225 435.5C243.7 446.3 262.3 435.7 281.2 430C300 424.3 319 423.7 337.8 408.8C356.7 394 375.3 365 394 353.3C412.7 341.7 431.3 347.3 450 365C468.7 382.7 487.3 412.3 506.2 418.5C525 424.7 544 407.3 562.8 403C581.7 398.7 600.3 407.3 619 409.8C637.7 412.3 656.3 408.7 675 412.3C693.7 416 712.3 427 731.2 430.5C750 434 769 430 787.8 413.3C806.7 396.7 825.3 367.3 844 359C862.7 350.7 881.3 363.3 890.7 369.7L900 376L900 601L890.7 601C881.3 601 862.7 601 844 601C825.3 601 806.7 601 787.8 601C769 601 750 601 731.2 601C712.3 601 693.7 601 675 601C656.3 601 637.7 601 619 601C600.3 601 581.7 601 562.8 601C544 601 525 601 506.2 601C487.3 601 468.7 601 450 601C431.3 601 412.7 601 394 601C375.3 601 356.7 601 337.8 601C319 601 300 601 281.2 601C262.3 601 243.7 601 225 601C206.3 601 187.7 601 169 601C150.3 601 131.7 601 112.8 601C94 601 75 601 56.2 601C37.3 601 18.7 601 9.3 601L0 601Z" fill="#b790b9"></path><path d="M0 420L9.3 424.2C18.7 428.3 37.3 436.7 56.2 437C75 437.3 94 429.7 112.8 436.2C131.7 442.7 150.3 463.3 169 468.2C187.7 473 206.3 462 225 455C243.7 448 262.3 445 281.2 433.7C300 422.3 319 402.7 337.8 403C356.7 403.3 375.3 423.7 394 433.7C412.7 443.7 431.3 443.3 450 434.5C468.7 425.7 487.3 408.3 506.2 413.7C525 419 544 447 562.8 448.7C581.7 450.3 600.3 425.7 619 412C637.7 398.3 656.3 395.7 675 402.7C693.7 409.7 712.3 426.3 731.2 431.7C750 437 769 431 787.8 436.2C806.7 441.3 825.3 457.7 844 464.5C862.7 471.3 881.3 468.7 890.7 467.3L900 466L900 601L890.7 601C881.3 601 862.7 601 844 601C825.3 601 806.7 601 787.8 601C769 601 750 601 731.2 601C712.3 601 693.7 601 675 601C656.3 601 637.7 601 619 601C600.3 601 581.7 601 562.8 601C544 601 525 601 506.2 601C487.3 601 468.7 601 450 601C431.3 601 412.7 601 394 601C375.3 601 356.7 601 337.8 601C319 601 300 601 281.2 601C262.3 601 243.7 601 225 601C206.3 601 187.7 601 169 601C150.3 601 131.7 601 112.8 601C94 601 75 601 56.2 601C37.3 601 18.7 601 9.3 601L0 601Z" fill="#957dad"></path><path d="M0 449L9.3 453.2C18.7 457.3 37.3 465.7 56.2 471.2C75 476.7 94 479.3 112.8 469.2C131.7 459 150.3 436 169 431.3C187.7 426.7 206.3 440.3 225 452.7C243.7 465 262.3 476 281.2 472.5C300 469 319 451 337.8 447.8C356.7 444.7 375.3 456.3 394 455.2C412.7 454 431.3 440 450 445C468.7 450 487.3 474 506.2 478.2C525 482.3 544 466.7 562.8 453C581.7 439.3 600.3 427.7 619 436.8C637.7 446 656.3 476 675 478.5C693.7 481 712.3 456 731.2 445.3C750 434.7 769 438.3 787.8 440C806.7 441.7 825.3 441.3 844 450.2C862.7 459 881.3 477 890.7 486L900 495L900 601L890.7 601C881.3 601 862.7 601 844 601C825.3 601 806.7 601 787.8 601C769 601 750 601 731.2 601C712.3 601 693.7 601 675 601C656.3 601 637.7 601 619 601C600.3 601 581.7 601 562.8 601C544 601 525 601 506.2 601C487.3 601 468.7 601 450 601C431.3 601 412.7 601 394 601C375.3 601 356.7 601 337.8 601C319 601 300 601 281.2 601C262.3 601 243.7 601 225 601C206.3 601 187.7 601 169 601C150.3 601 131.7 601 112.8 601C94 601 75 601 56.2 601C37.3 601 18.7 601 9.3 601L0 601Z" fill="#957dad"></path><path d="M0 485L9.3 493.2C18.7 501.3 37.3 517.7 56.2 512.2C75 506.7 94 479.3 112.8 470.2C131.7 461 150.3 470 169 474.2C187.7 478.3 206.3 477.7 225 473C243.7 468.3 262.3 459.7 281.2 462.7C300 465.7 319 480.3 337.8 492.3C356.7 504.3 375.3 513.7 394 513.5C412.7 513.3 431.3 503.7 450 502C468.7 500.3 487.3 506.7 506.2 506C525 505.3 544 497.7 562.8 497.8C581.7 498 600.3 506 619 500.7C637.7 495.3 656.3 476.7 675 467.2C693.7 457.7 712.3 457.3 731.2 464.3C750 471.3 769 485.7 787.8 490.3C806.7 495 825.3 490 844 486.7C862.7 483.3 881.3 481.7 890.7 480.8L900 480L900 601L890.7 601C881.3 601 862.7 601 844 601C825.3 601 806.7 601 787.8 601C769 601 750 601 731.2 601C712.3 601 693.7 601 675 601C656.3 601 637.7 601 619 601C600.3 601 581.7 601 562.8 601C544 601 525 601 506.2 601C487.3 601 468.7 601 450 601C431.3 601 412.7 601 394 601C375.3 601 356.7 601 337.8 601C319 601 300 601 281.2 601C262.3 601 243.7 601 225 601C206.3 601 187.7 601 169 601C150.3 601 131.7 601 112.8 601C94 601 75 601 56.2 601C37.3 601 18.7 601 9.3 601L0 601Z" fill="#b790b9"></path><path d="M0 520L9.3 525.3C18.7 530.7 37.3 541.3 56.2 545.5C75 549.7 94 547.3 112.8 549C131.7 550.7 150.3 556.3 169 555.5C187.7 554.7 206.3 547.3 225 540.2C243.7 533 262.3 526 281.2 525.7C300 525.3 319 531.7 337.8 529.2C356.7 526.7 375.3 515.3 394 511.5C412.7 507.7 431.3 511.3 450 516.5C468.7 521.7 487.3 528.3 506.2 530.3C525 532.3 544 529.7 562.8 533.8C581.7 538 600.3 549 619 554.8C637.7 560.7 656.3 561.3 675 561.7C693.7 562 712.3 562 731.2 556.2C750 550.3 769 538.7 787.8 534C806.7 529.3 825.3 531.7 844 528.5C862.7 525.3 881.3 516.7 890.7 512.3L900 508L900 601L890.7 601C881.3 601 862.7 601 844 601C825.3 601 806.7 601 787.8 601C769 601 750 601 731.2 601C712.3 601 693.7 601 675 601C656.3 601 637.7 601 619 601C600.3 601 581.7 601 562.8 601C544 601 525 601 506.2 601C487.3 601 468.7 601 450 601C431.3 601 412.7 601 394 601C375.3 601 356.7 601 337.8 601C319 601 300 601 281.2 601C262.3 601 243.7 601 225 601C206.3 601 187.7 601 169 601C150.3 601 131.7 601 112.8 601C94 601 75 601 56.2 601C37.3 601 18.7 601 9.3 601L0 601Z" fill="#ddabc8"></path><path d="M0 537L9.3 541.7C18.7 546.3 37.3 555.7 56.2 558.5C75 561.3 94 557.7 112.8 556.8C131.7 556 150.3 558 169 553.8C187.7 549.7 206.3 539.3 225 537.7C243.7 536 262.3 543 281.2 550C300 557 319 564 337.8 569.8C356.7 575.7 375.3 580.3 394 578.7C412.7 577 431.3 569 450 563.5C468.7 558 487.3 555 506.2 549.8C525 544.7 544 537.3 562.8 535.5C581.7 533.7 600.3 537.3 619 540.3C637.7 543.3 656.3 545.7 675 551C693.7 556.3 712.3 564.7 731.2 567.3C750 570 769 567 787.8 567.3C806.7 567.7 825.3 571.3 844 571.7C862.7 572 881.3 569 890.7 567.5L900 566L900 601L890.7 601C881.3 601 862.7 601 844 601C825.3 601 806.7 601 787.8 601C769 601 750 601 731.2 601C712.3 601 693.7 601 675 601C656.3 601 637.7 601 619 601C600.3 601 581.7 601 562.8 601C544 601 525 601 506.2 601C487.3 601 468.7 601 450 601C431.3 601 412.7 601 394 601C375.3 601 356.7 601 337.8 601C319 601 300 601 281.2 601C262.3 601 243.7 601 225 601C206.3 601 187.7 601 169 601C150.3 601 131.7 601 112.8 601C94 601 75 601 56.2 601C37.3 601 18.7 601 9.3 601L0 601Z" fill="#fec8d8"></path></svg>