<svg id="visual" viewBox="0 0 900 600" width="900" height="600" xmlns="http://www.w3.org/2000/svg" xmlns:xlink="http://www.w3.org/1999/xlink" version="1.1"><rect x="0" y="0" width="900" height="600" fill="#fff3f7"></rect><path d="M0 371L13.7 381.3C27.3 391.7 54.7 412.3 82 416.3C109.3 420.3 136.7 407.7 163.8 402C191 396.3 218 397.7 245.2 397.2C272.3 396.7 299.7 394.3 327 390.3C354.3 386.3 381.7 380.7 409 387.7C436.3 394.7 463.7 414.3 491 419.8C518.3 425.3 545.7 416.7 573 405.3C600.3 394 627.7 380 654.8 378C682 376 709 386 736.2 394.2C763.3 402.3 790.7 408.7 818 404.3C845.3 400 872.7 385 886.3 377.5L900 370L900 601L886.3 601C872.7 601 845.3 601 818 601C790.7 601 763.3 601 736.2 601C709 601 682 601 654.8 601C627.7 601 600.3 601 573 601C545.7 601 518.3 601 491 601C463.7 601 436.3 601 409 601C381.7 601 354.3 601 327 601C299.7 601 272.3 601 245.2 601C218 601 191 601 163.8 601C136.7 601 109.3 601 82 601C54.7 601 27.3 601 13.7 601L0 601Z" fill="#fec8d8"></path><path d="M0 409L13.7 416C27.3 423 54.7 437 82 441C109.3 445 136.7 439 163.8 438.5C191 438 218 443 245.2 443.8C272.3 444.7 299.7 441.3 327 436.7C354.3 432 381.7 426 409 421.7C436.3 417.3 463.7 414.7 491 408.3C518.3 402 545.7 392 573 387.5C600.3 383 627.7 384 654.8 393.5C682 403 709 421 736.2 432.5C763.3 444 790.7 449 818 440.5C845.3 432 872.7 410 886.3 399L900 388L900 601L886.3 601C872.7 601 845.3 601 818 601C790.7 601 763.3 601 736.2 601C709 601 682 601 654.8 601C627.7 601 600.3 601 573 601C545.7 601 518.3 601 491 601C463.7 601 436.3 601 409 601C381.7 601 354.3 601 327 601C299.7 601 272.3 601 245.2 601C218 601 191 601 163.8 601C136.7 601 109.3 601 82 601C54.7 601 27.3 601 13.7 601L0 601Z" fill="#d7a6c5"></path><path d="M0 482L13.7 481C27.3 480 54.7 478 82 473.7C109.3 469.3 136.7 462.7 163.8 455C191 447.3 218 438.7 245.2 435.7C272.3 432.7 299.7 435.3 327 443.8C354.3 452.3 381.7 466.7 409 473.7C436.3 480.7 463.7 480.3 491 477.8C518.3 475.3 545.7 470.7 573 459.5C600.3 448.3 627.7 430.7 654.8 433.2C682 435.7 709 458.3 736.2 465.3C763.3 472.3 790.7 463.7 818 458.5C845.3 453.3 872.7 451.7 886.3 450.8L900 450L900 601L886.3 601C872.7 601 845.3 601 818 601C790.7 601 763.3 601 736.2 601C709 601 682 601 654.8 601C627.7 601 600.3 601 573 601C545.7 601 518.3 601 491 601C463.7 601 436.3 601 409 601C381.7 601 354.3 601 327 601C299.7 601 272.3 601 245.2 601C218 601 191 601 163.8 601C136.7 601 109.3 601 82 601C54.7 601 27.3 601 13.7 601L0 601Z" fill="#a988b4"></path><path d="M0 456L13.7 463.3C27.3 470.7 54.7 485.3 82 487.5C109.3 489.7 136.7 479.3 163.8 474.3C191 469.3 218 469.7 245.2 474.8C272.3 480 299.7 490 327 485.8C354.3 481.7 381.7 463.3 409 459.3C436.3 455.3 463.7 465.7 491 469.2C518.3 472.7 545.7 469.3 573 474.8C600.3 480.3 627.7 494.7 654.8 492.5C682 490.3 709 471.7 736.2 468C763.3 464.3 790.7 475.7 818 478C845.3 480.3 872.7 473.7 886.3 470.3L900 467L900 601L886.3 601C872.7 601 845.3 601 818 601C790.7 601 763.3 601 736.2 601C709 601 682 601 654.8 601C627.7 601 600.3 601 573 601C545.7 601 518.3 601 491 601C463.7 601 436.3 601 409 601C381.7 601 354.3 601 327 601C299.7 601 272.3 601 245.2 601C218 601 191 601 163.8 601C136.7 601 109.3 601 82 601C54.7 601 27.3 601 13.7 601L0 601Z" fill="#957dad"></path><path d="M0 480L13.7 486.5C27.3 493 54.7 506 82 507.7C109.3 509.3 136.7 499.7 163.8 500.8C191 502 218 514 245.2 513.2C272.3 512.3 299.7 498.7 327 494.2C354.3 489.7 381.7 494.3 409 499.3C436.3 504.3 463.7 509.7 491 509.5C518.3 509.3 545.7 503.7 573 505.8C600.3 508 627.7 518 654.8 522C682 526 709 524 736.2 524.7C763.3 525.3 790.7 528.7 818 524C845.3 519.3 872.7 506.7 886.3 500.3L900 494L900 601L886.3 601C872.7 601 845.3 601 818 601C790.7 601 763.3 601 736.2 601C709 601 682 601 654.8 601C627.7 601 600.3 601 573 601C545.7 601 518.3 601 491 601C463.7 601 436.3 601 409 601C381.7 601 354.3 601 327 601C299.7 601 272.3 601 245.2 601C218 601 191 601 163.8 601C136.7 601 109.3 601 82 601C54.7 601 27.3 601 13.7 601L0 601Z" fill="#a988b4"></path><path d="M0 543L13.7 538.8C27.3 534.7 54.7 526.3 82 525.2C109.3 524 136.7 530 163.8 529.2C191 528.3 218 520.7 245.2 522.2C272.3 523.7 299.7 534.3 327 537.8C354.3 541.3 381.7 537.7 409 536.5C436.3 535.3 463.7 536.7 491 537.3C518.3 538 545.7 538 573 539.5C600.3 541 627.7 544 654.8 546C682 548 709 549 736.2 543.3C763.3 537.7 790.7 525.3 818 522.3C845.3 519.3 872.7 525.7 886.3 528.8L900 532L900 601L886.3 601C872.7 601 845.3 601 818 601C790.7 601 763.3 601 736.2 601C709 601 682 601 654.8 601C627.7 601 600.3 601 573 601C545.7 601 518.3 601 491 601C463.7 601 436.3 601 409 601C381.7 601 354.3 601 327 601C299.7 601 272.3 601 245.2 601C218 601 191 601 163.8 601C136.7 601 109.3 601 82 601C54.7 601 27.3 601 13.7 601L0 601Z" fill="#d7a6c5"></path><path d="M0 562L13.7 560.2C27.3 558.3 54.7 554.7 82 553.5C109.3 552.3 136.7 553.7 163.8 553.3C191 553 218 551 245.2 552.7C272.3 554.3 299.7 559.7 327 564.5C354.3 569.3 381.7 573.7 409 573.8C436.3 574 463.7 570 491 565.8C518.3 561.7 545.7 557.3 573 557.5C600.3 557.7 627.7 562.3 654.8 561.8C682 561.3 709 555.7 736.2 555.8C763.3 556 790.7 562 818 562.2C845.3 562.3 872.7 556.7 886.3 553.8L900 551L900 601L886.3 601C872.7 601 845.3 601 818 601C790.7 601 763.3 601 736.2 601C709 601 682 601 654.8 601C627.7 601 600.3 601 573 601C545.7 601 518.3 601 491 601C463.7 601 436.3 601 409 601C381.7 601 354.3 601 327 601C299.7 601 272.3 601 245.2 601C218 601 191 601 163.8 601C136.7 601 109.3 601 82 601C54.7 601 27.3 601 13.7 601L0 601Z" fill="#fec8d8"></path></svg>